<?xml version="1.0" encoding="UTF-8"?> <svg xmlns="http://www.w3.org/2000/svg" xmlns:xlink="http://www.w3.org/1999/xlink" id="Layer_2" data-name="Layer 2" viewBox="0 0 547.64 310.57"><defs><style> .cls-1 { fill: url(#linear-gradient); } .cls-1, .cls-2 { stroke-width: 0px; } .cls-2 { fill: #fff; } </style><linearGradient id="linear-gradient" x1="771.88" y1="276.44" x2="-212.6" y2="25.05" gradientUnits="userSpaceOnUse"><stop offset="0" stop-color="#eec65f"></stop><stop offset=".23" stop-color="#a76f2a"></stop><stop offset=".33" stop-color="#e2b755"></stop><stop offset=".46" stop-color="#f9f2b7"></stop><stop offset=".58" stop-color="#e2b755"></stop><stop offset=".69" stop-color="#8f5d21"></stop><stop offset="1" stop-color="#e2b755"></stop></linearGradient></defs><g id="Layer_1-2" data-name="Layer 1"><g><g id="africa.psd"><path class="cls-2" d="m0,90.8c0-3.93,0-7.86,0-11.8.64-2.15,1.08-4.38,1.95-6.43,7.78-18.34,17.13-35.76,30.77-50.52,6.6-7.14,14.06-13.19,23.86-15.34,10.26-2.25,20.5-4.82,30.89-6.2,10.53-1.4,16.5-.59,22.55,10.2,3.57,6.36,7.71,12.54,12.46,18.06,6.42,7.46,12.62,7.98,21.3,3.37,13.94-7.42,28.88-10.43,44.6-9.57,8.41.45,14.99,3.65,17.7,12.39.67,2.16,1.72,4.2,2.58,6.31,6.28,15.4,12.36,30.91,21.46,44.96,5.33,8.22,11.36,15.83,20.01,20.83,5.75,3.33,11.72,5.61,18.55,3.02,1.77-.67,3.87-.68,5.81-.61,4.47.15,6.95,2.7,7.52,7.11.59,4.6-1.64,8.09-4.59,11.05-5.17,5.2-10.8,9.96-15.91,15.22-5.45,5.62-10.93,11.31-15.65,17.53-4.62,6.1-6.08,13.27-5.19,21.13.97,8.61,1.39,17.32,1.37,25.98-.03,8.93-1.59,17.72-5.59,25.86-3.16,6.45-7.88,11.14-15.26,12.4-6.26,1.07-9.55,4.88-10.62,10.91-.29,1.63-.53,3.26-.78,4.9-1.1,7.09-2.92,14.11-8.96,18.5-5.41,3.94-9.13,9.13-13.14,14.22-2.11,2.68-4.47,5.16-6.76,7.68-3.82,4.21-8.61,6.68-14.14,7.8-.98.2-1.93.53-2.89.8h-13.66c-6.18-1.94-9.65-6.58-12.35-12.12-5.14-10.58-10.56-21.11-10.78-33.21-.13-6.94-1.38-13.5-4.18-19.81-3.78-8.53-4.43-17.33-1.96-26.29,2.69-9.76,1.6-18.55-4.96-26.75-5.4-6.75-6.5-15.18-7.39-23.57-.83-7.79-2.02-15.54-6.03-22.51-3.38-5.89-8.52-8.93-15.26-8.86-3.28.03-6.58.55-9.82,1.14-11.35,2.06-22.65.89-33.97-.18-9.73-.91-18.52-3.97-25.67-10.9-5.6-5.43-9.16-12.23-12.11-19.27C3.4,102.61,1.89,96.63,0,90.8Z"></path></g><path class="cls-1" d="m270.17,94.16v16.42l-8.97,9.12-29.35.03v-13.25c0-.99-.39-1.92-1.09-2.63l-21.2-21.25v-15.76h7.26v-21.55h-21.56v21.55h6.86v17.3c0,.98.38,1.91,1.09,2.63l21.2,21.25v25.69l-19.12-19.09c-.69-.69-1.61-1.07-2.64-1.08l-15.53.12v-6.9h-61.87c-1.94,0-3.52,1.58-3.52,3.52v2.79c2.47-1.84,5.37-2.81,8.55-2.81h17.1c3.95,0,7.49,1.45,10.24,4.2l12.36,12.36c.96.96,2.26,1.5,3.61,1.5h13.53v-7.21l14.03-.12,23.28,23.23.04,22.04v17.91c0,.25-.2.45-.45.45h-4.37c-.12,0-.24-.05-.32-.13l-65.86-65.86c-1.65-1.65-3.68-2.48-6.07-2.48h-17.1c-2.51,0-4.64.95-6.37,2.84-1.46,1.6-2.18,3.74-2.18,5.9v68.28c0,2.3.79,4.27,2.38,5.91,1.68,1.74,4.06,2.71,6.48,2.63,1.79-.06,3.38-.61,4.77-1.65,2.29-1.73,3.48-4.56,3.48-7.43v-58.93c0-.25.2-.45.45-.45h4.37c.12,0,.24.05.32.13l65.86,65.86c1.65,1.65,3.68,2.48,6.07,2.48h16.91c2.16,0,4.31-.73,5.9-2.19,1.9-1.73,2.84-3.85,2.84-6.37l-8.72-66.01,29.93-.03c.97,0,1.9-.38,2.63-1.1l10.17-10.33h16.17v-21.55h-21.56Z"></path><g><path class="cls-2" d="m303.96,161.64v-25.06h7.87v40.53h-5.45l-20.66-24.84v24.84h-7.87v-40.53h5.07l21.04,25.06Z"></path><path class="cls-2" d="m357.41,177.1h-8.41l-2.97-8.78h-13.92l-3.07,8.78h-8.36l15.21-40.53h6.53l14.99,40.53Zm-13.65-16.01l-4.64-13.49-4.75,13.49h9.39Z"></path><path class="cls-2" d="m395,177.1h-31.23v-5.81l19.74-27.2h-18.99v-7.51h29.88v6.03l-19.36,26.98h19.96v7.51Z"></path><path class="cls-2" d="m438.15,177.1h-8.41l-2.97-8.78h-13.92l-3.07,8.78h-8.36l15.21-40.53h6.53l14.99,40.53Zm-13.65-16.01l-4.64-13.49-4.75,13.49h9.39Z"></path><path class="cls-2" d="m477.53,177.1h-9.33l-8.41-14.75h-4.75v14.75h-7.98v-40.53h15.26c4.42,0,7.8,1.24,10.14,3.73,2.34,2.49,3.51,5.52,3.51,9.1,0,2.71-.69,5.13-2.08,7.27-1.38,2.14-3.39,3.68-6.01,4.63l9.65,15.79Zm-15.26-33.01h-7.23v10.97h6.53c2.01,0,3.55-.51,4.61-1.54,1.06-1.02,1.59-2.36,1.59-4s-.49-2.87-1.48-3.89c-.99-1.02-2.33-1.54-4.02-1.54Z"></path><path class="cls-2" d="m487.5,177.1v-40.53h8.04v40.53h-8.04Z"></path><path class="cls-2" d="m526.82,177.76c-5.93,0-10.86-1.99-14.78-5.98-3.96-4.02-5.93-8.96-5.93-14.81s2-10.88,5.99-14.97c4.03-4.09,8.95-6.14,14.78-6.14s10.73,2.05,14.73,6.14c4.03,4.09,6.04,9.05,6.04,14.86s-2.01,10.75-6.04,14.81c-3.99,4.06-8.92,6.09-14.78,6.09Zm12.51-20.89c0-3.73-1.2-6.82-3.61-9.27-2.45-2.49-5.39-3.73-8.85-3.73s-6.4,1.24-8.85,3.73c-2.41,2.45-3.61,5.54-3.61,9.27s1.19,6.76,3.56,9.21c2.41,2.45,5.38,3.67,8.9,3.67s6.49-1.22,8.9-3.67c2.41-2.45,3.6-5.52,3.56-9.21Z"></path></g><g><path class="cls-2" d="m277.65,187.91v-2.03h11.87v2.03h-4.79v13.57h-2.31v-13.57h-4.78Z"></path><path class="cls-2" d="m297.23,201.48v-15.6h9.62v2.03h-7.3v4.75h6.8v2.02h-6.8v4.77h7.39v2.03h-9.71Z"></path><path class="cls-2" d="m327.79,190.95h-2.34c-.09-.51-.26-.95-.5-1.34-.24-.39-.54-.71-.9-.98-.35-.27-.75-.47-1.19-.61s-.9-.21-1.39-.21c-.88,0-1.67.23-2.37.68-.7.45-1.25,1.11-1.65,1.99-.4.87-.6,1.94-.6,3.2s.2,2.34.6,3.21c.4.87.95,1.53,1.65,1.98.7.45,1.49.67,2.36.67.48,0,.94-.07,1.38-.2s.83-.33,1.19-.6.66-.59.9-.97c.25-.38.42-.82.51-1.32h2.34c-.13.77-.37,1.48-.72,2.12s-.81,1.2-1.37,1.66-1.19.82-1.91,1.08c-.71.25-1.49.38-2.34.38-1.33,0-2.51-.32-3.55-.96-1.04-.64-1.86-1.56-2.45-2.76-.6-1.2-.89-2.63-.89-4.29s.3-3.1.9-4.29c.6-1.2,1.42-2.11,2.46-2.76,1.04-.64,2.22-.96,3.54-.96.81,0,1.57.12,2.28.35.71.24,1.34.58,1.91,1.04.56.45,1.03,1.01,1.4,1.66s.62,1.4.75,2.23Z"></path><path class="cls-2" d="m335.67,201.48v-15.6h2.31v6.78h7.65v-6.78h2.32v15.6h-2.32v-6.8h-7.65v6.8h-2.31Z"></path><path class="cls-2" d="m368.81,185.88v15.6h-2.13l-7.8-11.44h-.14v11.44h-2.31v-15.6h2.14l7.8,11.45h.14v-11.45h2.29Z"></path><path class="cls-2" d="m390.6,193.68c0,1.67-.3,3.1-.9,4.29-.6,1.2-1.42,2.11-2.46,2.76-1.04.64-2.22.96-3.55.96s-2.51-.32-3.55-.96c-1.04-.64-1.86-1.56-2.46-2.76-.6-1.2-.9-2.63-.9-4.29s.3-3.1.9-4.29c.6-1.2,1.42-2.11,2.46-2.76,1.04-.64,2.23-.96,3.55-.96s2.5.32,3.55.96c1.04.64,1.86,1.56,2.46,2.76.6,1.2.9,2.63.9,4.29Zm-2.29,0c0-1.27-.2-2.34-.6-3.21-.4-.87-.95-1.53-1.65-1.98-.7-.45-1.48-.67-2.36-.67s-1.67.22-2.37.67c-.69.45-1.24,1.11-1.64,1.98-.4.87-.6,1.94-.6,3.21s.2,2.34.6,3.21c.4.87.95,1.53,1.64,1.98.69.45,1.48.67,2.37.67s1.67-.22,2.36-.67c.7-.45,1.25-1.11,1.65-1.98.4-.87.6-1.94.6-3.21Z"></path><path class="cls-2" d="m398.58,201.48v-15.6h2.31v13.57h6.95v2.03h-9.26Z"></path><path class="cls-2" d="m428.31,193.68c0,1.67-.3,3.1-.9,4.29-.6,1.2-1.42,2.11-2.46,2.76-1.04.64-2.22.96-3.55.96s-2.51-.32-3.55-.96c-1.04-.64-1.86-1.56-2.46-2.76-.6-1.2-.9-2.63-.9-4.29s.3-3.1.9-4.29,1.42-2.11,2.46-2.76c1.04-.64,2.23-.96,3.55-.96s2.5.32,3.55.96c1.04.64,1.86,1.56,2.46,2.76.6,1.2.9,2.63.9,4.29Zm-2.29,0c0-1.27-.2-2.34-.6-3.21-.4-.87-.95-1.53-1.65-1.98-.7-.45-1.48-.67-2.36-.67s-1.67.22-2.37.67c-.69.45-1.24,1.11-1.64,1.98-.4.87-.6,1.94-.6,3.21s.2,2.34.6,3.21c.4.87.95,1.53,1.64,1.98.69.45,1.48.67,2.37.67s1.67-.22,2.36-.67c.7-.45,1.25-1.11,1.65-1.98.4-.87.6-1.94.6-3.21Z"></path><path class="cls-2" d="m446.67,190.81c-.15-.46-.34-.88-.58-1.24-.24-.37-.53-.68-.86-.94-.33-.26-.72-.46-1.14-.6-.43-.14-.89-.21-1.4-.21-.86,0-1.64.23-2.34.68-.69.45-1.24,1.11-1.64,1.98-.4.87-.6,1.94-.6,3.19s.2,2.33.61,3.21c.4.87.96,1.54,1.66,1.99.7.45,1.51.68,2.4.68.83,0,1.56-.17,2.18-.52.62-.35,1.1-.83,1.45-1.47.34-.63.51-1.38.51-2.24l.6.11h-4.39v-1.94h6.03v1.77c0,1.31-.27,2.45-.82,3.41-.55.96-1.3,1.7-2.26,2.23-.96.52-2.06.78-3.3.78-1.39,0-2.6-.32-3.65-.97-1.05-.65-1.86-1.57-2.45-2.77-.58-1.2-.88-2.62-.88-4.26,0-1.24.17-2.36.51-3.35.34-.99.82-1.83,1.43-2.52.62-.69,1.34-1.22,2.18-1.59.84-.37,1.75-.55,2.75-.55.83,0,1.6.12,2.32.37.72.25,1.36.6,1.92,1.06.56.46,1.03,1,1.4,1.63s.62,1.32.75,2.08h-2.37Z"></path><path class="cls-2" d="m459.51,185.88v15.6h-2.31v-15.6h2.31Z"></path><path class="cls-2" d="m467.98,201.48v-15.6h9.62v2.03h-7.3v4.75h6.8v2.02h-6.8v4.77h7.39v2.03h-9.71Z"></path><path class="cls-2" d="m494.17,189.98c-.08-.72-.41-1.28-.99-1.68-.58-.4-1.31-.6-2.19-.6-.63,0-1.17.1-1.63.3s-.82.47-1.07.82c-.25.35-.38.74-.38,1.18,0,.37.09.69.26.96.17.27.4.49.68.67.28.18.59.33.91.45.32.12.64.22.94.29l1.5.4c.49.12.99.29,1.51.5s.99.48,1.43.82c.44.34.8.76,1.07,1.26s.41,1.1.41,1.8c0,.88-.22,1.67-.67,2.35-.45.69-1.09,1.23-1.94,1.62s-1.87.59-3.07.59-2.14-.19-2.98-.56c-.84-.37-1.5-.9-1.97-1.58-.47-.68-.74-1.49-.79-2.43h2.32c.05.56.23,1.03.54,1.4.32.37.72.65,1.22.83.5.18,1.04.27,1.64.27.65,0,1.24-.1,1.75-.32.51-.21.91-.5,1.21-.88s.44-.82.44-1.33c0-.46-.13-.84-.39-1.13-.26-.29-.6-.54-1.04-.73s-.93-.36-1.48-.51l-1.81-.5c-1.23-.34-2.2-.84-2.92-1.5s-1.07-1.53-1.07-2.62c0-.9.24-1.68.72-2.35.48-.67,1.13-1.19,1.95-1.56.82-.37,1.74-.56,2.77-.56s1.96.19,2.75.56c.8.37,1.42.88,1.88,1.53s.7,1.39.72,2.23h-2.23Z"></path></g></g></g></svg> 